# xmcd CD database file
#
# Track frame offsets:
#	150
#	11962
#	22795
#	36252
#	50495
#	65217
#	75702
#	89800
#	98717
#	111657
#	123852
#	137580
#	151025
#	167340
#	178535
#	192402
#	206192
#	217550
#	230507
#	243177
#	271792
#	290717
#	308397
#	331885
#
# Disc length: 4750 seconds
#
# Revision: 0
# Processed by: cddbd v1.5.2PL0 Copyright (c) Steve Scherf et al.
# Submitted via: CDex 1.70beta2
#
DISCID=49128c18
DTITLE=Mark C. Gridley - Concise Guide to JAZZ fifth edition Jazz Classics Disc 1
DYEAR=2007
DGENRE=Jazz
TTITLE0=Dixie Jazz Band One-Step
TTITLE1=Alligator Hop
TTITLE2=Reckless Blues
TTITLE3=Riverboat Shuffle
TTITLE4=West End Blues
TTITLE5=Tiger Rag
TTITLE6=Lady Be Good
TTITLE7=Sittin' In
TTITLE8=Taxi War Dance
TTITLE9=Back in Your Own Back Yard
TTITLE10=Body and Soul
TTITLE11=Harlem Airshaft
TTITLE12=I've Got It Bad and That Ain't Good
TTITLE13=Flying Home
TTITLE14=Index
TTITLE15=Parker's Mood
TTITLE16=Leap Frog
TTITLE17=Get Happy
TTITLE18=Subconscious-Lee
TTITLE19=Improvisation
TTITLE20=Get Happy
TTITLE21=It Never Entered My Mind
TTITLE22=Two Bass Hit
TTITLE23=Blue in Green
EXTD=YEAR: 2007
EXTT0=
EXTT1=
EXTT2=
EXTT3=
EXTT4=
EXTT5=
EXTT6=
EXTT7=
EXTT8=
EXTT9=
EXTT10=
EXTT11=
EXTT12=
EXTT13=
EXTT14=
EXTT15=
EXTT16=
EXTT17=
EXTT18=
EXTT19=
EXTT20=
EXTT21=
EXTT22=
EXTT23=
PLAYORDER=
